<svg width="50" height="56" viewBox="0 0 50 56" fill="none" xmlns="http://www.w3.org/2000/svg">
<path d="M44.1429 0H5.85714C2.62857 0 0 2.57223 0 5.75956V43.5602C0 46.7475 2.62857 49.3198 5.85714 49.3198H38.2571L36.7429 44.1473L40.4 47.4745L43.8571 50.6059L50 55.9181V5.75956C50 2.57223 47.3714 0 44.1429 0ZM33.1143 36.5145C33.1143 36.5145 32.0857 35.3123 31.2286 34.2498C34.9714 33.2153 36.4 30.9227 36.4 30.9227C35.2286 31.6776 34.1143 32.2088 33.1143 32.5723C31.6857 33.1594 30.3143 33.5509 28.9714 33.7745C26.2286 34.2778 23.7143 34.138 21.5714 33.7466C19.9429 33.439 18.5429 32.9917 17.3714 32.5443C16.7143 32.2927 16 31.9851 15.2857 31.5937C15.2 31.5378 15.1143 31.5098 15.0286 31.4539C14.9714 31.426 14.9429 31.398 14.9143 31.37C14.4 31.0905 14.1143 30.8947 14.1143 30.8947C14.1143 30.8947 15.4857 33.1315 19.1143 34.1939C18.2571 35.2564 17.2 36.5145 17.2 36.5145C10.8857 36.3188 8.48571 32.2647 8.48571 32.2647C8.48571 23.2619 12.6 15.9646 12.6 15.9646C16.7143 12.945 20.6286 13.0289 20.6286 13.0289L20.9143 13.3644C15.7714 14.8183 13.4 17.0271 13.4 17.0271C13.4 17.0271 14.0286 16.6915 15.0857 16.2162C18.1429 14.9022 20.5714 14.5387 21.5714 14.4548C21.7429 14.4269 21.8857 14.3989 22.0571 14.3989C23.8 14.1752 25.7714 14.1193 27.8286 14.343C30.5429 14.6505 33.4571 15.4334 36.4286 17.0271C36.4286 17.0271 34.1714 14.9301 29.3143 13.4763L29.7143 13.0289C29.7143 13.0289 33.6286 12.945 37.7429 15.9646C37.7429 15.9646 41.8571 23.2619 41.8571 32.2647C41.8571 32.2647 39.4286 36.3188 33.1143 36.5145ZM19.8286 23.4576C18.2 23.4576 16.9143 24.8556 16.9143 26.5611C16.9143 28.2666 18.2286 29.6645 19.8286 29.6645C21.4571 29.6645 22.7429 28.2666 22.7429 26.5611C22.7714 24.8556 21.4571 23.4576 19.8286 23.4576ZM30.2571 23.4576C28.6286 23.4576 27.3429 24.8556 27.3429 26.5611C27.3429 28.2666 28.6571 29.6645 30.2571 29.6645C31.8857 29.6645 33.1714 28.2666 33.1714 26.5611C33.1714 24.8556 31.8857 23.4576 30.2571 23.4576Z" fill="#7289DA"/>
</svg>
