<svg width="57" height="57" viewBox="0 0 57 57" fill="none" xmlns="http://www.w3.org/2000/svg">
<path d="M57 28.5C57 44.2392 44.2392 57 28.5 57C12.7608 57 0 44.2392 0 28.5C0 12.7608 12.7608 0 28.5 0C44.2425 0 57 12.7608 57 28.5Z" fill="#2081E2"/>
<path d="M14.0607 29.4558L14.1837 29.2625L21.5977 17.6643C21.706 17.4944 21.9608 17.512 22.0427 17.6965C23.2813 20.4724 24.3501 23.9246 23.8494 26.0738C23.6356 26.9581 23.0501 28.1557 22.3912 29.2625C22.3063 29.4236 22.2126 29.5817 22.113 29.734C22.0662 29.8042 21.9871 29.8453 21.9022 29.8453H14.2774C14.0724 29.8453 13.9524 29.6227 14.0607 29.4558Z" fill="white"/>
<path d="M47.1075 31.6112V33.4471C47.1075 33.5525 47.0431 33.6462 46.9495 33.6872C46.3755 33.9332 44.4108 34.8351 43.5938 35.9711C41.509 38.8729 39.9161 43.022 36.3555 43.022H21.5012C16.2365 43.022 11.9702 38.7411 11.9702 33.4588V33.289C11.9702 33.1484 12.0844 33.0342 12.225 33.0342H20.5056C20.6696 33.0342 20.7897 33.1865 20.7751 33.3476C20.7165 33.8863 20.816 34.4368 21.0708 34.9375C21.5627 35.936 22.5817 36.5597 23.6827 36.5597H27.782V33.3593H23.7295C23.5216 33.3593 23.3987 33.1192 23.5187 32.9493C23.5626 32.882 23.6124 32.8117 23.6651 32.7326C24.0487 32.188 24.5962 31.3418 25.1409 30.3784C25.5127 29.7284 25.8729 29.0344 26.1628 28.3376C26.2214 28.2117 26.2682 28.0828 26.315 27.9569C26.3941 27.7344 26.4761 27.5265 26.5347 27.3186C26.5932 27.1429 26.6401 26.9584 26.6869 26.7856C26.8245 26.1942 26.8831 25.5676 26.8831 24.9175C26.8831 24.6628 26.8714 24.3963 26.848 24.1415C26.8363 23.8634 26.8011 23.5852 26.766 23.3071C26.7425 23.0611 26.6986 22.8181 26.6518 22.5633C26.5932 22.1914 26.5112 21.8225 26.4175 21.4506L26.3853 21.3101C26.315 21.0554 26.2565 20.8123 26.1745 20.5576C25.9432 19.7582 25.6767 18.9793 25.3956 18.2502C25.2931 17.9603 25.176 17.6822 25.0589 17.404C24.8861 16.9853 24.7104 16.6046 24.5494 16.2445C24.4674 16.0805 24.3971 15.9311 24.3269 15.7789C24.2478 15.6061 24.1658 15.4334 24.0839 15.2694C24.0253 15.1435 23.9579 15.0264 23.9111 14.9093L23.4104 13.984C23.3401 13.8581 23.4572 13.7087 23.5948 13.7468L26.7279 14.5959H26.7367C26.7425 14.5959 26.7455 14.5989 26.7484 14.5989L27.1613 14.7131L27.6151 14.8419L27.782 14.8887V13.0265C27.782 12.1275 28.5024 11.3984 29.3925 11.3984C29.8376 11.3984 30.2416 11.58 30.5315 11.8757C30.8214 12.1715 31.003 12.5756 31.003 13.0265V15.7906L31.3367 15.8843C31.3631 15.8931 31.3895 15.9048 31.4129 15.9223C31.4949 15.9838 31.612 16.0747 31.7613 16.1859C31.8785 16.2796 32.0044 16.3938 32.1566 16.5109C32.4582 16.754 32.8183 17.0673 33.2137 17.4274C33.3191 17.5182 33.4216 17.6119 33.5153 17.7056C34.0248 18.1799 34.5957 18.7363 35.1404 19.3512C35.2927 19.5239 35.442 19.6996 35.5942 19.8841C35.7465 20.0715 35.9076 20.256 36.0481 20.4405C36.2326 20.6864 36.4316 20.9411 36.6044 21.2076C36.6864 21.3335 36.7801 21.4624 36.8592 21.5883C37.0817 21.925 37.2779 22.2735 37.4653 22.6219C37.5443 22.7829 37.6264 22.9586 37.6966 23.1314C37.9045 23.5969 38.0685 24.0713 38.1739 24.5457C38.2061 24.6481 38.2295 24.7594 38.2413 24.859V24.8824C38.2763 25.023 38.2881 25.1723 38.2998 25.3246C38.3466 25.8106 38.3232 26.2967 38.2178 26.7856C38.1739 26.9936 38.1154 27.1897 38.0451 27.3976C37.9748 27.5968 37.9045 27.8046 37.8138 28.0008C37.6381 28.4078 37.4302 28.8148 37.1842 29.1955C37.1051 29.336 37.0115 29.4854 36.9177 29.6259C36.8152 29.7752 36.7099 29.9158 36.6161 30.0535C36.4873 30.2291 36.3497 30.4136 36.2092 30.5775C36.0832 30.7503 35.9544 30.9231 35.8138 31.0753C35.6177 31.3066 35.4303 31.5263 35.2341 31.7371C35.117 31.8747 34.9911 32.0153 34.8622 32.1412C34.7363 32.2817 34.6074 32.4076 34.4903 32.5247C34.2941 32.7209 34.1302 32.8732 33.9925 32.9991L33.6704 33.2949C33.6236 33.3358 33.5621 33.3593 33.4977 33.3593H31.003V36.5597H34.1419C34.8446 36.5597 35.5122 36.3108 36.051 35.854C36.2355 35.693 37.0407 34.9961 37.9924 33.9449C38.0245 33.9098 38.0656 33.8834 38.1124 33.8717L46.7825 31.3652C46.9436 31.3184 47.1075 31.4413 47.1075 31.6112Z" fill="white"/>
</svg>
