<svg width="68" height="54" viewBox="0 0 68 54" fill="none" xmlns="http://www.w3.org/2000/svg">
<path d="M68 6.57416C65.498 7.65345 62.8093 8.38289 59.9872 8.71096C62.8677 7.03142 65.0797 4.37204 66.1214 1.20337C63.4259 2.75831 60.4401 3.88768 57.2624 4.49639C54.7174 1.85902 51.0917 0.210938 47.0792 0.210938C39.3743 0.210938 33.1277 6.28674 33.1277 13.7808C33.1277 14.8443 33.2513 15.8801 33.4891 16.8732C21.8944 16.3073 11.6146 10.9049 4.73381 2.69492C3.53295 4.69914 2.84496 7.03021 2.84496 9.5171C2.84496 14.225 5.30812 18.3786 9.05149 20.812C6.76443 20.7416 4.61342 20.1312 2.73229 19.1148C2.73129 19.1714 2.73129 19.2283 2.73129 19.2854C2.73129 25.8603 7.54022 31.345 13.9224 32.5915C12.7516 32.9017 11.5191 33.0674 10.2466 33.0674C9.34773 33.0674 8.4737 32.9825 7.62205 32.824C9.39723 38.2153 14.5494 42.1386 20.6542 42.2482C15.8796 45.8877 9.86409 48.0572 3.32799 48.0572C2.202 48.0572 1.09142 47.993 0 47.8677C6.17395 51.7179 13.5072 53.9643 21.3857 53.9643C47.0466 53.9643 61.0789 33.2866 61.0789 15.3543C61.0789 14.766 61.0654 14.1807 61.0386 13.5988C63.7641 11.6856 66.1296 9.29548 68 6.57416Z" fill="#55ACEE"/>
</svg>
